<svg xmlns="http://www.w3.org/2000/svg" xmlns:xlink="http://www.w3.org/1999/xlink" viewBox="0 0 3750.31 1369.78"><defs><style>.a{fill:none;}.b{clip-path:url(#a);}.c{font-size:1241.87px;fill:#fff;font-family:Arciform, Arciform Sans;}.d{letter-spacing:0.01em;}.e{letter-spacing:0.06em;}</style><clipPath id="a" transform="translate(-95.19 -344.05)"><path class="a" d="M2092.84,1351.79l-.15,1.15-2.43,9.5C1971.75,1782.83,1585.82,2090.9,1128,2090.9c-552.17,0-999.75-448.12-999.75-1000.95S575.83,89,1128,89c330.28,0,623.13,160.32,805.17,407.49l-112.06,60C1660.61,348,1408.73,213.73,1125.52,213.73c-484.79,0-877.85,393.48-877.85,878.85s393.06,878.9,877.85,878.9c403.13,0,742.79-272.09,845.78-642.88l3-8.92,46.57,12.6,10.77,2.92Z"/></clipPath></defs><text class="c" transform="translate(0 1055.58)"><tspan class="d">o</tspan><tspan class="e" x="696.66" y="0">r</tspan><tspan x="1138.73" y="0">b.</tspan><tspan class="e" x="2040.31" y="0">r</tspan><tspan x="2482.38" y="0">un</tspan></text></svg>